<?xml version="1.0" encoding="utf-8"?>
<svg version="1.1" id="Layer_1" xmlns="http://www.w3.org/2000/svg" xmlns:xlink="http://www.w3.org/1999/xlink" x="0px" y="0px"
	 viewBox="0 0 100 35" style="enable-background:new 0 0 100 35;" xml:space="preserve">
<style type="text/css">
	.st0{fill:yellow;}
</style>
<g>
	<polygon class="st0" points="40,35 40,25.9 30,26.8 30,35 	"/>
	<polygon class="st0" points="55,24.6 45,25.4 45,35 55,35 	"/>
	<polygon class="st0" points="40,0 30,0 30,21.7 40,20.9 	"/>
	<polygon class="st0" points="55,0 45,0 45,20.4 55,19.6 	"/>
	<polygon class="st0" points="70,23.3 60,24.1 60,35 70,35 	"/>
	<polygon class="st0" points="75,22.8 75,35 100,35 100,20.6 	"/>
	<polygon class="st0" points="60,0 60,19.1 70,18.2 70,0 	"/>
	<polygon class="st0" points="25,27.2 0,29.4 0,35 25,35 	"/>
	<polygon class="st0" points="100,10 85,10 85,0 75,0 75,17.8 100,15.6 	"/>
	<polygon class="st0" points="25,22.2 25,0 15,0 15,10 10,10 10,0 0,0 0,24.4 	"/>
</g>
</svg>
